<svg class = "textlogo" xmlns="http://www.w3.org/2000/svg" xmlns:xlink="http://www.w3.org/1999/xlink" width="200" zoomAndPan="magnify" viewBox="0 0 150 30.000001" height="40" preserveAspectRatio="xMidYMid meet" version="1.0"><defs><g/><clipPath id="id1"><path d="M 2.417969 1.457031 L 29 1.457031 L 29 23 L 2.417969 23 Z M 2.417969 1.457031 " clip-rule="nonzero"/></clipPath><clipPath id="id2"><path d="M 2.417969 5 L 28 5 L 28 27.585938 L 2.417969 27.585938 Z M 2.417969 5 " clip-rule="nonzero"/></clipPath></defs><g clip-path="url(#id1)"><path fill="#02ade2" d="M 28.050781 17.910156 C 28.167969 17.476562 28.261719 17.039062 28.332031 16.59375 C 28.402344 16.152344 28.449219 15.707031 28.476562 15.257812 C 28.5 14.808594 28.503906 14.359375 28.480469 13.910156 C 28.460938 13.464844 28.417969 13.015625 28.347656 12.574219 C 28.28125 12.128906 28.191406 11.6875 28.078125 11.253906 C 27.964844 10.820312 27.832031 10.390625 27.675781 9.972656 C 27.519531 9.550781 27.339844 9.136719 27.140625 8.734375 C 26.941406 8.332031 26.722656 7.941406 26.484375 7.5625 C 26.242188 7.183594 25.984375 6.816406 25.707031 6.460938 C 25.429688 6.109375 25.136719 5.773438 24.824219 5.449219 C 24.511719 5.125 24.183594 4.820312 23.839844 4.53125 C 23.496094 4.242188 23.136719 3.972656 22.765625 3.71875 C 22.394531 3.46875 22.011719 3.234375 21.613281 3.023438 C 21.21875 2.8125 20.8125 2.621094 20.398438 2.449219 C 19.984375 2.277344 19.558594 2.128906 19.128906 2.003906 C 18.699219 1.875 18.261719 1.773438 17.820312 1.691406 C 17.378906 1.609375 16.933594 1.550781 16.484375 1.511719 C 16.039062 1.476562 15.589844 1.464844 15.140625 1.476562 C 14.691406 1.484375 14.246094 1.519531 13.800781 1.574219 C 13.355469 1.632812 12.914062 1.710938 12.476562 1.8125 C 12.039062 1.914062 11.605469 2.039062 11.183594 2.1875 C 10.757812 2.332031 10.34375 2.5 9.933594 2.691406 C 9.527344 2.878906 9.132812 3.089844 8.746094 3.320312 C 8.359375 3.550781 7.988281 3.800781 7.628906 4.066406 C 7.269531 4.335938 6.921875 4.625 6.59375 4.929688 C 6.261719 5.230469 5.949219 5.554688 5.652344 5.890625 C 5.355469 6.226562 5.074219 6.578125 4.816406 6.941406 C 4.554688 7.308594 4.3125 7.6875 4.089844 8.078125 C 3.871094 8.46875 3.667969 8.867188 3.488281 9.28125 C 3.308594 9.691406 3.148438 10.109375 3.011719 10.539062 C 2.875 10.964844 2.757812 11.398438 2.667969 11.839844 C 2.574219 12.277344 2.503906 12.722656 2.457031 13.167969 L 4.667969 13.167969 C 4.742188 12.574219 4.863281 11.992188 5.035156 11.417969 C 5.210938 10.84375 5.425781 10.289062 5.691406 9.75 C 5.957031 9.214844 6.261719 8.703125 6.613281 8.214844 C 6.960938 7.730469 7.347656 7.273438 7.773438 6.851562 C 8.199219 6.429688 8.65625 6.046875 9.144531 5.699219 C 9.632812 5.351562 10.144531 5.050781 10.683594 4.789062 C 11.222656 4.527344 11.78125 4.3125 12.355469 4.144531 C 12.929688 3.976562 13.515625 3.855469 14.109375 3.785156 C 14.703125 3.714844 15.300781 3.691406 15.898438 3.71875 C 16.496094 3.746094 17.085938 3.824219 17.671875 3.949219 C 18.257812 4.074219 18.828125 4.25 19.386719 4.46875 C 19.941406 4.691406 20.476562 4.957031 20.988281 5.265625 C 21.503906 5.574219 21.984375 5.925781 22.441406 6.316406 C 22.894531 6.703125 23.3125 7.128906 23.699219 7.589844 C 24.082031 8.046875 24.425781 8.535156 24.726562 9.054688 C 25.03125 9.570312 25.289062 10.109375 25.503906 10.667969 L 23.355469 11.242188 C 22.871094 10.074219 22.164062 9.0625 21.230469 8.210938 C 20.296875 7.355469 19.226562 6.742188 18.019531 6.359375 L 17.625 8.59375 C 18.210938 8.808594 18.75 9.101562 19.25 9.476562 C 19.746094 9.851562 20.179688 10.289062 20.546875 10.792969 C 20.914062 11.296875 21.199219 11.839844 21.40625 12.429688 C 21.613281 13.015625 21.730469 13.621094 21.757812 14.246094 C 21.785156 14.867188 21.71875 15.480469 21.566406 16.082031 C 21.414062 16.6875 21.175781 17.253906 20.851562 17.789062 C 20.53125 18.320312 20.136719 18.796875 19.675781 19.210938 C 19.210938 19.628906 18.699219 19.96875 18.132812 20.234375 L 18.722656 22.425781 C 19.589844 22.066406 20.378906 21.574219 21.089844 20.953125 C 21.796875 20.332031 22.386719 19.617188 22.859375 18.800781 C 23.328125 17.984375 23.65625 17.117188 23.839844 16.191406 C 24.027344 15.269531 24.058594 14.339844 23.933594 13.40625 L 26.074219 12.835938 C 26.300781 14.277344 26.238281 15.707031 25.878906 17.121094 Z M 28.050781 17.910156 " fill-opacity="1" fill-rule="evenodd"/></g><g clip-path="url(#id2)"><path fill="#02ade2" d="M 18.820312 27.113281 C 18.359375 27.238281 17.890625 27.335938 17.417969 27.410156 C 16.945312 27.480469 16.46875 27.527344 15.988281 27.546875 C 15.511719 27.570312 15.03125 27.5625 14.554688 27.53125 C 14.078125 27.496094 13.601562 27.441406 13.128906 27.355469 C 12.660156 27.269531 12.195312 27.160156 11.734375 27.023438 C 11.273438 26.886719 10.824219 26.726562 10.382812 26.542969 C 9.941406 26.355469 9.511719 26.148438 9.09375 25.914062 C 8.675781 25.683594 8.269531 25.425781 7.878906 25.148438 C 7.488281 24.871094 7.113281 24.574219 6.757812 24.253906 C 6.398438 23.9375 6.058594 23.601562 5.738281 23.242188 C 5.417969 22.886719 5.117188 22.515625 4.839844 22.125 C 4.558594 21.738281 4.300781 21.335938 4.066406 20.917969 C 3.832031 20.5 3.621094 20.070312 3.433594 19.628906 C 3.242188 19.191406 3.082031 18.742188 2.941406 18.28125 C 2.804688 17.824219 2.691406 17.359375 2.601562 16.886719 C 2.515625 16.417969 2.453125 15.941406 2.417969 15.464844 L 4.628906 15.464844 C 4.683594 16.082031 4.792969 16.691406 4.957031 17.289062 C 5.121094 17.917969 5.34375 18.523438 5.625 19.113281 L 7.589844 17.933594 C 7.445312 17.601562 7.324219 17.261719 7.222656 16.914062 C 7.125 16.566406 7.046875 16.214844 6.988281 15.859375 C 6.933594 15.5 6.902344 15.140625 6.890625 14.78125 C 6.878906 14.421875 6.890625 14.058594 6.925781 13.699219 C 6.960938 13.339844 7.019531 12.984375 7.101562 12.632812 C 7.179688 12.28125 7.28125 11.933594 7.40625 11.59375 C 7.53125 11.257812 7.675781 10.925781 7.839844 10.605469 C 8.007812 10.285156 8.191406 9.972656 8.394531 9.675781 C 8.601562 9.378906 8.824219 9.09375 9.066406 8.824219 C 9.304688 8.554688 9.5625 8.304688 9.835938 8.066406 C 10.105469 7.828125 10.394531 7.609375 10.695312 7.410156 C 10.992188 7.207031 11.304688 7.027344 11.628906 6.867188 C 11.953125 6.703125 12.285156 6.566406 12.625 6.445312 C 12.964844 6.324219 13.3125 6.226562 13.667969 6.152344 C 14.019531 6.078125 14.375 6.023438 14.738281 5.992188 C 15.097656 5.964844 15.457031 5.957031 15.816406 5.972656 L 15.417969 8.203125 C 14.933594 8.207031 14.457031 8.261719 13.988281 8.375 C 13.515625 8.484375 13.066406 8.648438 12.632812 8.863281 C 12.199219 9.078125 11.796875 9.339844 11.421875 9.648438 C 11.050781 9.957031 10.71875 10.300781 10.421875 10.683594 C 10.128906 11.070312 9.882812 11.480469 9.683594 11.921875 C 9.484375 12.363281 9.335938 12.820312 9.242188 13.292969 C 9.148438 13.765625 9.109375 14.246094 9.125 14.730469 C 9.140625 15.210938 9.207031 15.6875 9.332031 16.15625 C 9.390625 16.363281 9.449219 16.570312 9.53125 16.753906 L 12.042969 15.246094 L 11.289062 13.242188 L 13.664062 10.804688 L 16.667969 10.160156 L 17.527344 11.230469 L 16.144531 12.632812 L 14.941406 13.011719 L 14.078125 13.898438 L 14.5 15.074219 C 14.5 15.074219 15.355469 15.980469 15.355469 15.980469 L 16.566406 15.660156 L 17.425781 14.71875 L 19.300781 14.121094 L 19.851562 15.378906 L 17.925781 17.753906 L 14.679688 18.777344 L 13.222656 17.15625 L 10.683594 18.683594 C 11.347656 19.433594 12.140625 20 13.074219 20.375 C 14.003906 20.75 14.96875 20.898438 15.96875 20.816406 L 16.554688 23.011719 C 15.824219 23.105469 15.089844 23.105469 14.359375 23.011719 C 13.625 22.917969 12.917969 22.734375 12.230469 22.457031 C 11.546875 22.179688 10.910156 21.820312 10.316406 21.378906 C 9.726562 20.9375 9.199219 20.429688 8.738281 19.851562 L 6.78125 21.023438 C 7.058594 21.390625 7.359375 21.734375 7.683594 22.0625 C 8.003906 22.390625 8.347656 22.695312 8.707031 22.980469 C 9.070312 23.265625 9.449219 23.523438 9.84375 23.757812 C 10.238281 23.996094 10.644531 24.203125 11.066406 24.386719 C 11.488281 24.570312 11.917969 24.726562 12.359375 24.855469 C 12.800781 24.984375 13.246094 25.085938 13.703125 25.15625 C 14.15625 25.226562 14.613281 25.269531 15.070312 25.285156 C 15.53125 25.296875 15.988281 25.28125 16.445312 25.238281 C 16.902344 25.191406 17.355469 25.117188 17.804688 25.015625 C 18.253906 24.914062 18.691406 24.785156 19.121094 24.625 C 19.554688 24.464844 19.972656 24.28125 20.382812 24.070312 C 20.789062 23.855469 21.183594 23.621094 21.558594 23.359375 C 21.9375 23.097656 22.296875 22.8125 22.636719 22.503906 C 22.980469 22.195312 23.300781 21.867188 23.597656 21.519531 C 23.898438 21.171875 24.175781 20.804688 24.425781 20.421875 C 24.679688 20.039062 24.90625 19.640625 25.109375 19.226562 L 27.28125 20.015625 C 26.878906 20.882812 26.386719 21.691406 25.808594 22.449219 C 25.226562 23.207031 24.570312 23.894531 23.839844 24.507812 C 23.109375 25.121094 22.320312 25.644531 21.472656 26.085938 C 20.628906 26.527344 19.742188 26.867188 18.820312 27.113281 Z M 18.820312 27.113281 " fill-opacity="1" fill-rule="nonzero"/></g><g fill="#ffffff" fill-opacity="1"><g transform="translate(30.627614, 22.681346)"><g><path d="M 5.671875 -12.28125 L 8.890625 -12.28125 L 8.890625 -9.484375 L 5.765625 -9.484375 L 5.765625 0 L 2.125 0 L 2.125 -9.484375 L 0.1875 -9.484375 L 0.1875 -12.28125 L 2.125 -12.28125 L 2.125 -12.84375 C 2.125 -14.269531 2.546875 -15.40625 3.390625 -16.25 C 4.242188 -17.09375 5.441406 -17.515625 6.984375 -17.515625 C 7.523438 -17.515625 8.039062 -17.453125 8.53125 -17.328125 C 9.019531 -17.210938 9.425781 -17.046875 9.75 -16.828125 L 8.796875 -14.1875 C 8.378906 -14.488281 7.890625 -14.640625 7.328125 -14.640625 C 6.222656 -14.640625 5.671875 -14.03125 5.671875 -12.8125 Z M 5.671875 -12.28125 "/></g></g></g><g fill="#ffffff" fill-opacity="1"><g transform="translate(39.823207, 22.681346)"><g><path d="M 1.6875 -17.328125 L 5.328125 -17.328125 L 5.328125 0 L 1.6875 0 Z M 1.6875 -17.328125 "/></g></g></g><g fill="#ffffff" fill-opacity="1"><g transform="translate(47.011651, 22.681346)"><g><path d="M 6.75 -12.75 C 8.695312 -12.75 10.191406 -12.285156 11.234375 -11.359375 C 12.273438 -10.429688 12.796875 -9.035156 12.796875 -7.171875 L 12.796875 0 L 9.390625 0 L 9.390625 -1.5625 C 8.703125 -0.394531 7.425781 0.1875 5.5625 0.1875 C 4.59375 0.1875 3.753906 0.0234375 3.046875 -0.296875 C 2.335938 -0.628906 1.796875 -1.082031 1.421875 -1.65625 C 1.046875 -2.226562 0.859375 -2.882812 0.859375 -3.625 C 0.859375 -4.789062 1.296875 -5.707031 2.171875 -6.375 C 3.054688 -7.039062 4.414062 -7.375 6.25 -7.375 L 9.15625 -7.375 C 9.15625 -8.164062 8.910156 -8.773438 8.421875 -9.203125 C 7.941406 -9.628906 7.21875 -9.84375 6.25 -9.84375 C 5.582031 -9.84375 4.925781 -9.738281 4.28125 -9.53125 C 3.632812 -9.320312 3.085938 -9.039062 2.640625 -8.6875 L 1.328125 -11.234375 C 2.015625 -11.710938 2.835938 -12.082031 3.796875 -12.34375 C 4.753906 -12.613281 5.738281 -12.75 6.75 -12.75 Z M 6.46875 -2.265625 C 7.09375 -2.265625 7.644531 -2.40625 8.125 -2.6875 C 8.601562 -2.976562 8.945312 -3.40625 9.15625 -3.96875 L 9.15625 -5.25 L 6.65625 -5.25 C 5.15625 -5.25 4.40625 -4.757812 4.40625 -3.78125 C 4.40625 -3.3125 4.585938 -2.941406 4.953125 -2.671875 C 5.328125 -2.398438 5.832031 -2.265625 6.46875 -2.265625 Z M 6.46875 -2.265625 "/></g></g></g><g fill="#ffffff" fill-opacity="1"><g transform="translate(61.575193, 22.681346)"><g><path d="M 9.78125 -0.609375 C 9.425781 -0.335938 8.988281 -0.132812 8.46875 0 C 7.945312 0.125 7.394531 0.1875 6.8125 0.1875 C 5.320312 0.1875 4.164062 -0.191406 3.34375 -0.953125 C 2.53125 -1.710938 2.125 -2.832031 2.125 -4.3125 L 2.125 -9.484375 L 0.1875 -9.484375 L 0.1875 -12.28125 L 2.125 -12.28125 L 2.125 -15.34375 L 5.765625 -15.34375 L 5.765625 -12.28125 L 8.890625 -12.28125 L 8.890625 -9.484375 L 5.765625 -9.484375 L 5.765625 -4.359375 C 5.765625 -3.835938 5.898438 -3.429688 6.171875 -3.140625 C 6.441406 -2.847656 6.828125 -2.703125 7.328125 -2.703125 C 7.898438 -2.703125 8.390625 -2.859375 8.796875 -3.171875 Z M 9.78125 -0.609375 "/></g></g></g><g fill="#ffffff" fill-opacity="1"><g transform="translate(71.891052, 22.681346)"><g><path d="M 1.6875 -12.5625 L 5.328125 -12.5625 L 5.328125 0 L 1.6875 0 Z M 3.5 -14.3125 C 2.832031 -14.3125 2.285156 -14.503906 1.859375 -14.890625 C 1.441406 -15.285156 1.234375 -15.769531 1.234375 -16.34375 C 1.234375 -16.914062 1.441406 -17.394531 1.859375 -17.78125 C 2.285156 -18.175781 2.832031 -18.375 3.5 -18.375 C 4.164062 -18.375 4.707031 -18.1875 5.125 -17.8125 C 5.550781 -17.4375 5.765625 -16.96875 5.765625 -16.40625 C 5.765625 -15.800781 5.550781 -15.300781 5.125 -14.90625 C 4.707031 -14.507812 4.164062 -14.3125 3.5 -14.3125 Z M 3.5 -14.3125 "/></g></g></g><g fill="#ffffff" fill-opacity="1"><g transform="translate(79.079496, 22.681346)"><g><path d="M 5.15625 -10.90625 C 5.59375 -11.507812 6.179688 -11.96875 6.921875 -12.28125 C 7.660156 -12.59375 8.515625 -12.75 9.484375 -12.75 L 9.484375 -9.390625 C 9.078125 -9.421875 8.800781 -9.4375 8.65625 -9.4375 C 7.613281 -9.4375 6.796875 -9.144531 6.203125 -8.5625 C 5.617188 -7.976562 5.328125 -7.097656 5.328125 -5.921875 L 5.328125 0 L 1.6875 0 L 1.6875 -12.5625 L 5.15625 -12.5625 Z M 5.15625 -10.90625 "/></g></g></g><g fill="#ffffff" fill-opacity="1"><g transform="translate(89.301995, 22.681346)"><g><path d="M 7.65625 0.1875 C 6.332031 0.1875 5.144531 -0.0859375 4.09375 -0.640625 C 3.039062 -1.191406 2.21875 -1.957031 1.625 -2.9375 C 1.039062 -3.914062 0.75 -5.03125 0.75 -6.28125 C 0.75 -7.519531 1.039062 -8.628906 1.625 -9.609375 C 2.21875 -10.597656 3.039062 -11.367188 4.09375 -11.921875 C 5.144531 -12.472656 6.332031 -12.75 7.65625 -12.75 C 8.976562 -12.75 10.160156 -12.472656 11.203125 -11.921875 C 12.242188 -11.367188 13.0625 -10.597656 13.65625 -9.609375 C 14.25 -8.628906 14.546875 -7.519531 14.546875 -6.28125 C 14.546875 -5.03125 14.25 -3.914062 13.65625 -2.9375 C 13.0625 -1.957031 12.242188 -1.191406 11.203125 -0.640625 C 10.160156 -0.0859375 8.976562 0.1875 7.65625 0.1875 Z M 7.65625 -2.796875 C 8.59375 -2.796875 9.359375 -3.109375 9.953125 -3.734375 C 10.554688 -4.367188 10.859375 -5.21875 10.859375 -6.28125 C 10.859375 -7.332031 10.554688 -8.171875 9.953125 -8.796875 C 9.359375 -9.429688 8.59375 -9.75 7.65625 -9.75 C 6.71875 -9.75 5.945312 -9.429688 5.34375 -8.796875 C 4.738281 -8.171875 4.4375 -7.332031 4.4375 -6.28125 C 4.4375 -5.21875 4.738281 -4.367188 5.34375 -3.734375 C 5.945312 -3.109375 6.71875 -2.796875 7.65625 -2.796875 Z M 7.65625 -2.796875 "/></g></g></g><g fill="#ffffff" fill-opacity="1"><g transform="translate(104.752419, 22.681346)"><g><path d="M 9.3125 -12.75 C 10.875 -12.75 12.128906 -12.28125 13.078125 -11.34375 C 14.035156 -10.40625 14.515625 -9.019531 14.515625 -7.1875 L 14.515625 0 L 10.875 0 L 10.875 -6.625 C 10.875 -7.625 10.65625 -8.367188 10.21875 -8.859375 C 9.789062 -9.347656 9.160156 -9.59375 8.328125 -9.59375 C 7.410156 -9.59375 6.679688 -9.304688 6.140625 -8.734375 C 5.597656 -8.171875 5.328125 -7.328125 5.328125 -6.203125 L 5.328125 0 L 1.6875 0 L 1.6875 -12.5625 L 5.15625 -12.5625 L 5.15625 -11.09375 C 5.632812 -11.613281 6.234375 -12.019531 6.953125 -12.3125 C 7.671875 -12.601562 8.457031 -12.75 9.3125 -12.75 Z M 9.3125 -12.75 "/></g></g></g><g fill="#ffffff" fill-opacity="1"><g transform="translate(121.043046, 22.681346)"><g><path d="M 9.78125 -0.609375 C 9.425781 -0.335938 8.988281 -0.132812 8.46875 0 C 7.945312 0.125 7.394531 0.1875 6.8125 0.1875 C 5.320312 0.1875 4.164062 -0.191406 3.34375 -0.953125 C 2.53125 -1.710938 2.125 -2.832031 2.125 -4.3125 L 2.125 -9.484375 L 0.1875 -9.484375 L 0.1875 -12.28125 L 2.125 -12.28125 L 2.125 -15.34375 L 5.765625 -15.34375 L 5.765625 -12.28125 L 8.890625 -12.28125 L 8.890625 -9.484375 L 5.765625 -9.484375 L 5.765625 -4.359375 C 5.765625 -3.835938 5.898438 -3.429688 6.171875 -3.140625 C 6.441406 -2.847656 6.828125 -2.703125 7.328125 -2.703125 C 7.898438 -2.703125 8.390625 -2.859375 8.796875 -3.171875 Z M 9.78125 -0.609375 "/></g></g></g><g fill="#ffffff" fill-opacity="1"><g transform="translate(131.358905, 22.681346)"><g><path d="M 9.3125 -12.75 C 10.875 -12.75 12.128906 -12.28125 13.078125 -11.34375 C 14.035156 -10.40625 14.515625 -9.019531 14.515625 -7.1875 L 14.515625 0 L 10.875 0 L 10.875 -6.625 C 10.875 -7.625 10.65625 -8.367188 10.21875 -8.859375 C 9.789062 -9.347656 9.160156 -9.59375 8.328125 -9.59375 C 7.410156 -9.59375 6.679688 -9.304688 6.140625 -8.734375 C 5.597656 -8.171875 5.328125 -7.328125 5.328125 -6.203125 L 5.328125 0 L 1.6875 0 L 1.6875 -17.328125 L 5.328125 -17.328125 L 5.328125 -11.25 C 5.804688 -11.726562 6.382812 -12.097656 7.0625 -12.359375 C 7.75 -12.617188 8.5 -12.75 9.3125 -12.75 Z M 9.3125 -12.75 "/></g></g></g></svg>